<svg xmlns="http://www.w3.org/2000/svg" xmlns:xlink="http://www.w3.org/1999/xlink" width="1024px"
    height="134px" viewBox="0 0 1024 134" version="1.1">
    <g id="surface1">
        <path
            style=" stroke:none;fill-rule:evenodd;fill:rgb(52.941176%,91.764706%,74.509804%);fill-opacity:1;"
            d="M 765.234375 96.601562 C 769.523438 96.601562 773 93.117188 773 88.8125 C 773 84.507812 769.523438 81.023438 765.234375 81.023438 C 760.9375 81.023438 757.460938 84.507812 757.460938 88.8125 C 757.460938 93.117188 760.9375 96.601562 765.234375 96.601562 Z M 765.234375 96.601562 " />
        <path
            style=" stroke:none;fill-rule:nonzero;fill:rgb(32.54902%,35.686275%,42.352941%);fill-opacity:1;"
            d="M 260.320312 18.695312 L 269.640625 18.695312 C 274.789062 18.695312 278.960938 22.882812 278.960938 28.046875 L 278.960938 109.070312 C 278.960938 114.234375 274.789062 118.421875 269.640625 118.421875 L 260.320312 118.421875 C 255.171875 118.421875 251 114.234375 251 109.070312 L 251 28.046875 C 251 22.882812 255.171875 18.695312 260.320312 18.695312 Z M 260.320312 18.695312 " />
        <path
            style=" stroke:none;fill-rule:nonzero;fill:rgb(52.941176%,91.764706%,74.509804%);fill-opacity:1;"
            d="M 294.5 0 L 303.820312 0 C 308.96875 0 313.140625 4.1875 313.140625 9.351562 L 313.140625 124.648438 C 313.140625 129.8125 308.96875 134 303.820312 134 L 294.5 134 C 289.351562 134 285.179688 129.8125 285.179688 124.648438 L 285.179688 9.351562 C 285.179688 4.1875 289.351562 0 294.5 0 Z M 294.5 0 " />
        <path
            style=" stroke:none;fill-rule:nonzero;fill:rgb(32.54902%,35.686275%,42.352941%);fill-opacity:1;"
            d="M 328.679688 0 L 484.039062 0 C 489.1875 0 493.359375 4.1875 493.359375 9.351562 L 493.359375 124.648438 C 493.359375 129.8125 489.1875 134 484.039062 134 L 328.679688 134 C 323.53125 134 319.359375 129.8125 319.359375 124.648438 L 319.359375 9.351562 C 319.359375 4.1875 323.53125 0 328.679688 0 Z M 328.679688 0 " />
        <path style=" stroke:none;fill-rule:nonzero;fill:rgb(100%,100%,100%);fill-opacity:1;"
            d="M 380.695312 39.726562 L 380.695312 50.828125 L 365.671875 50.828125 L 365.671875 96.601562 L 351.859375 96.601562 L 351.859375 50.828125 L 336.828125 50.828125 L 336.828125 39.726562 Z M 430.125 73.273438 C 430.125 74.5625 430.046875 75.914062 429.882812 77.320312 L 398.617188 77.320312 C 398.835938 80.132812 399.71875 82.289062 401.28125 83.804688 C 402.898438 85.257812 404.867188 85.992188 407.179688 85.992188 C 410.625 85.992188 413.023438 84.53125 414.375 81.617188 L 429.078125 81.617188 C 428.320312 84.585938 426.945312 87.257812 424.953125 89.632812 C 423.015625 92.015625 420.5625 93.875 417.601562 95.226562 C 414.640625 96.578125 411.328125 97.25 407.664062 97.25 C 403.25 97.25 399.320312 96.304688 395.875 94.414062 C 392.421875 92.523438 389.734375 89.828125 387.789062 86.3125 C 385.851562 82.804688 384.882812 78.695312 384.882812 74 C 384.882812 69.296875 385.828125 65.195312 387.710938 61.6875 C 389.648438 58.171875 392.34375 55.46875 395.789062 53.578125 C 399.234375 51.6875 403.195312 50.742188 407.664062 50.742188 C 412.03125 50.742188 415.90625 51.664062 419.296875 53.5 C 422.695312 55.335938 425.328125 57.953125 427.21875 61.359375 C 429.15625 64.765625 430.125 68.734375 430.125 73.273438 Z M 415.984375 69.625 C 415.984375 67.25 415.179688 65.359375 413.5625 63.953125 C 411.945312 62.546875 409.929688 61.84375 407.507812 61.84375 C 405.1875 61.84375 403.226562 62.523438 401.609375 63.875 C 400.046875 65.21875 399.078125 67.140625 398.695312 69.625 Z M 434.664062 74 C 434.664062 69.296875 435.609375 65.195312 437.492188 61.6875 C 439.429688 58.171875 442.101562 55.46875 445.492188 53.578125 C 448.9375 51.6875 452.867188 50.742188 457.289062 50.742188 C 462.9375 50.742188 467.65625 52.234375 471.421875 55.203125 C 475.25 58.171875 477.75 62.359375 478.9375 67.757812 L 464.234375 67.757812 C 462.992188 64.304688 460.601562 62.578125 457.046875 62.578125 C 454.515625 62.578125 452.492188 63.578125 450.984375 65.570312 C 449.476562 67.515625 448.71875 70.328125 448.71875 74 C 448.71875 77.671875 449.476562 80.507812 450.984375 82.507812 C 452.492188 84.453125 454.515625 85.421875 457.046875 85.421875 C 460.601562 85.421875 462.992188 83.695312 464.234375 80.234375 L 478.9375 80.234375 C 477.75 85.53125 475.25 89.6875 471.421875 92.71875 C 467.601562 95.742188 462.890625 97.25 457.289062 97.25 C 452.867188 97.25 448.9375 96.304688 445.492188 94.414062 C 442.101562 92.523438 439.429688 89.828125 437.492188 86.3125 C 435.609375 82.804688 434.664062 78.695312 434.664062 74 Z M 434.664062 74 " />
        <path
            style=" stroke:none;fill-rule:nonzero;fill:rgb(32.54902%,35.686275%,42.352941%);fill-opacity:1;"
            d="M 537.78125 67.4375 C 541.0625 68.140625 543.703125 69.789062 545.695312 72.375 C 547.6875 74.914062 548.6875 77.835938 548.6875 81.132812 C 548.6875 85.882812 547.015625 89.664062 543.679688 92.46875 C 540.390625 95.226562 535.789062 96.601562 529.859375 96.601562 L 503.445312 96.601562 L 503.445312 39.726562 L 528.976562 39.726562 C 534.734375 39.726562 539.234375 41.046875 542.46875 43.695312 C 545.75 46.34375 547.390625 49.9375 547.390625 54.46875 C 547.390625 57.820312 546.507812 60.601562 544.726562 62.820312 C 543 65.03125 540.6875 66.570312 537.78125 67.4375 Z M 517.257812 62.734375 L 526.304688 62.734375 C 528.570312 62.734375 530.296875 62.25 531.476562 61.28125 C 532.71875 60.25 533.335938 58.765625 533.335938 56.820312 C 533.335938 54.875 532.71875 53.390625 531.476562 52.367188 C 530.296875 51.335938 528.570312 50.828125 526.304688 50.828125 L 517.257812 50.828125 Z M 527.4375 85.421875 C 529.757812 85.421875 531.53125 84.914062 532.773438 83.882812 C 534.0625 82.804688 534.710938 81.265625 534.710938 79.265625 C 534.710938 77.265625 534.039062 75.703125 532.6875 74.5625 C 531.398438 73.429688 529.59375 72.867188 527.273438 72.867188 L 517.257812 72.867188 L 517.257812 85.421875 Z M 553.953125 73.921875 C 553.953125 69.273438 554.8125 65.195312 556.539062 61.6875 C 558.3125 58.171875 560.710938 55.46875 563.726562 53.578125 C 566.742188 51.6875 570.109375 50.742188 573.820312 50.742188 C 577 50.742188 579.773438 51.390625 582.140625 52.6875 C 584.570312 53.984375 586.421875 55.6875 587.71875 57.796875 L 587.71875 51.390625 L 601.53125 51.390625 L 601.53125 96.601562 L 587.71875 96.601562 L 587.71875 90.203125 C 586.375 92.3125 584.484375 94.015625 582.0625 95.304688 C 579.695312 96.601562 576.921875 97.25 573.742188 97.25 C 570.078125 97.25 566.742188 96.304688 563.726562 94.414062 C 560.710938 92.46875 558.3125 89.742188 556.539062 86.234375 C 554.8125 82.671875 553.953125 78.5625 553.953125 73.921875 Z M 587.71875 74 C 587.71875 70.539062 586.75 67.8125 584.8125 65.8125 C 582.929688 63.820312 580.609375 62.820312 577.859375 62.820312 C 575.117188 62.820312 572.773438 63.820312 570.835938 65.8125 C 568.953125 67.757812 568.007812 70.460938 568.007812 73.921875 C 568.007812 77.375 568.953125 80.132812 570.835938 82.179688 C 572.773438 84.179688 575.117188 85.179688 577.859375 85.179688 C 580.609375 85.179688 582.929688 84.179688 584.8125 82.179688 C 586.75 80.1875 587.71875 77.453125 587.71875 74 Z M 629.867188 97.25 C 625.9375 97.25 622.4375 96.578125 619.367188 95.226562 C 616.296875 93.875 613.867188 92.039062 612.09375 89.71875 C 610.3125 87.34375 609.320312 84.695312 609.101562 81.78125 L 622.757812 81.78125 C 622.921875 83.34375 623.648438 84.609375 624.9375 85.585938 C 626.234375 86.554688 627.820312 87.046875 629.703125 87.046875 C 631.429688 87.046875 632.75 86.71875 633.664062 86.070312 C 634.632812 85.367188 635.117188 84.476562 635.117188 83.398438 C 635.117188 82.101562 634.445312 81.15625 633.101562 80.5625 C 631.75 79.914062 629.570312 79.210938 626.554688 78.453125 C 623.320312 77.695312 620.625 76.914062 618.476562 76.109375 C 616.320312 75.242188 614.460938 73.921875 612.898438 72.132812 C 611.335938 70.296875 610.554688 67.84375 610.554688 64.765625 C 610.554688 62.171875 611.257812 59.820312 612.65625 57.710938 C 614.109375 55.554688 616.210938 53.851562 618.960938 52.609375 C 621.757812 51.367188 625.070312 50.742188 628.898438 50.742188 C 634.554688 50.742188 638.992188 52.148438 642.226562 54.960938 C 645.507812 57.765625 647.398438 61.492188 647.882812 66.140625 L 635.117188 66.140625 C 634.90625 64.570312 634.203125 63.328125 633.015625 62.414062 C 631.882812 61.492188 630.382812 61.039062 628.492188 61.039062 C 626.875 61.039062 625.640625 61.359375 624.773438 62.007812 C 623.914062 62.601562 623.484375 63.4375 623.484375 64.515625 C 623.484375 65.8125 624.15625 66.789062 625.507812 67.4375 C 626.90625 68.085938 629.054688 68.734375 631.96875 69.382812 C 635.304688 70.242188 638.023438 71.109375 640.125 71.976562 C 642.226562 72.78125 644.054688 74.132812 645.617188 76.023438 C 647.234375 77.859375 648.070312 80.34375 648.125 83.476562 C 648.125 86.125 647.367188 88.5 645.859375 90.609375 C 644.40625 92.664062 642.28125 94.28125 639.476562 95.46875 C 636.734375 96.65625 633.53125 97.25 629.867188 97.25 Z M 699.070312 73.273438 C 699.070312 74.5625 698.984375 75.914062 698.828125 77.320312 L 667.5625 77.320312 C 667.773438 80.132812 668.664062 82.289062 670.226562 83.804688 C 671.84375 85.257812 673.8125 85.992188 676.125 85.992188 C 679.570312 85.992188 681.96875 84.53125 683.3125 81.617188 L 698.015625 81.617188 C 697.265625 84.585938 695.890625 87.257812 693.898438 89.632812 C 691.960938 92.015625 689.507812 93.875 686.546875 95.226562 C 683.585938 96.578125 680.273438 97.25 676.609375 97.25 C 672.195312 97.25 668.257812 96.304688 664.8125 94.414062 C 661.367188 92.523438 658.679688 89.828125 656.734375 86.3125 C 654.796875 82.804688 653.828125 78.695312 653.828125 74 C 653.828125 69.296875 654.773438 65.195312 656.65625 61.6875 C 658.59375 58.171875 661.289062 55.46875 664.734375 53.578125 C 668.179688 51.6875 672.140625 50.742188 676.609375 50.742188 C 680.96875 50.742188 684.851562 51.664062 688.242188 53.5 C 691.632812 55.335938 694.273438 57.953125 696.164062 61.359375 C 698.101562 64.765625 699.070312 68.734375 699.070312 73.273438 Z M 684.929688 69.625 C 684.929688 67.25 684.125 65.359375 682.507812 63.953125 C 680.890625 62.546875 678.875 61.84375 676.445312 61.84375 C 674.132812 61.84375 672.164062 62.523438 670.554688 63.875 C 668.992188 65.21875 668.015625 67.140625 667.640625 69.625 Z M 703.609375 73.921875 C 703.609375 69.273438 704.46875 65.195312 706.195312 61.6875 C 707.96875 58.171875 710.367188 55.46875 713.382812 53.578125 C 716.398438 51.6875 719.765625 50.742188 723.484375 50.742188 C 726.445312 50.742188 729.132812 51.367188 731.5625 52.609375 C 734.039062 53.851562 735.976562 55.523438 737.375 57.632812 L 737.375 36.648438 L 751.1875 36.648438 L 751.1875 96.601562 L 737.375 96.601562 L 737.375 90.125 C 736.085938 92.28125 734.226562 94.015625 731.804688 95.304688 C 729.4375 96.601562 726.65625 97.25 723.484375 97.25 C 719.765625 97.25 716.398438 96.304688 713.382812 94.414062 C 710.367188 92.46875 707.96875 89.742188 706.195312 86.234375 C 704.46875 82.671875 703.609375 78.5625 703.609375 73.921875 Z M 737.375 74 C 737.375 70.539062 736.40625 67.8125 734.46875 65.8125 C 732.585938 63.820312 730.265625 62.820312 727.523438 62.820312 C 724.773438 62.820312 722.429688 63.820312 720.492188 65.8125 C 718.609375 67.757812 717.664062 70.460938 717.664062 73.921875 C 717.664062 77.375 718.609375 80.132812 720.492188 82.179688 C 722.429688 84.179688 724.773438 85.179688 727.523438 85.179688 C 730.265625 85.179688 732.585938 84.179688 734.46875 82.179688 C 736.40625 80.1875 737.375 77.453125 737.375 74 Z M 737.375 74 " />
    </g>
</svg>